<svg xmlns="http://www.w3.org/2000/svg" viewBox="-14 -14 708 708" color="#16191d" role="img" aria-label="Havre De Grace"><title>Havre De Grace</title><mask id="hdgs-seal-rev" maskUnits="userSpaceOnUse" x="0" y="0" width="680" height="680"><circle cx="340" cy="340" r="332" fill="#fff"/><g color="#000"><circle cx="340" cy="340" r="320" fill="none" stroke="#000" stroke-width="9"/><circle cx="340" cy="340" r="298" fill="none" stroke="#000" stroke-width="3"/><g transform="translate(175.14 130) scale(1.963) translate(-16 -8)"><g fill="currentColor"><circle cx="100" cy="26" r="18" fill="none" stroke="currentColor" stroke-width="10"/><path d="M92.4 40h15.2l-1.8 173h-11.6Z"/><path d="M42 72h116v15H42Z"/><circle cx="42" cy="79.5" r="8.5"/><circle cx="158" cy="79.5" r="8.5"/><path d="M24 134A76 88 0 0 0 176 134L184 102L161 134A61 73 0 0 1 39 134L16 102Z"/></g></g></g></mask><circle cx="340" cy="340" r="332" fill="currentColor" mask="url(#hdgs-seal-rev)"/></svg>
