<svg xmlns="http://www.w3.org/2000/svg" class="vs-sheet" viewBox="0 0 1600 1260" width="1600" height="1260" role="img" aria-labelledby="c3-specimen-cabinet--sheet-title c3-specimen-cabinet--sheet-desc">
  <title id="c3-specimen-cabinet--sheet-title">Specimen Cabinet — music video style reference (c3-specimen-cabinet)</title>
  <desc id="c3-specimen-cabinet--sheet-desc">A walnut specimen drawer that fills as the song names things — every noun a specimen on its own card, lit when it is sung. Frame is 1600x900; the strip below the frame is apparatus, not part of the film.</desc>
  <style>
    @import url('https://fonts.googleapis.com/css2?family=Jost:wght@300;400;500;600;700&amp;display=swap');
    svg.vs-sheet text { font-family: "Jost", "Helvetica Neue", Helvetica, Arial, sans-serif; }
    svg.vs-sheet .sheet-label { font-weight: 600; text-transform: uppercase; }
    svg.vs-sheet .sheet-note { font-weight: 400; }
  </style>
  <defs><clipPath id="c3-specimen-cabinet--thumb-0"><rect x="40" y="960" width="284" height="160"/></clipPath><clipPath id="c3-specimen-cabinet--thumb-1"><rect x="349" y="960" width="284" height="160"/></clipPath><clipPath id="c3-specimen-cabinet--thumb-2"><rect x="658" y="960" width="284" height="160"/></clipPath><clipPath id="c3-specimen-cabinet--thumb-3"><rect x="967" y="960" width="284" height="160"/></clipPath><clipPath id="c3-specimen-cabinet--thumb-4"><rect x="1276" y="960" width="284" height="160"/></clipPath><radialGradient id="c3-specimen-cabinet--lit"><stop offset="0" stop-color="#fff8e2" stop-opacity="1"/><stop offset="0.7" stop-color="#fff3d2" stop-opacity="0.55"/><stop offset="1" stop-color="#fff3d2" stop-opacity="0"/></radialGradient></defs>

  <rect width="1600" height="1260" fill="#08080a"/>

  <!-- ── The frame. Everything above y=900 is the film. ── -->
  <g clip-path="url(#c3-specimen-cabinet--hero-clip)">
    
  <rect x="0" y="0" width="1600" height="900" fill="#2e2119"/>
  <path d="M0 20 C 400 6 900 38 1600 14" fill="none" stroke="#3a2a1f" stroke-width="3" opacity="0.8"/><path d="M0 98 C 400 84 900 116 1600 92" fill="none" stroke="#3a2a1f" stroke-width="3" opacity="0.8"/><path d="M0 153 C 400 139 900 171 1600 147" fill="none" stroke="#3a2a1f" stroke-width="3" opacity="0.8"/><path d="M0 231 C 400 217 900 249 1600 225" fill="none" stroke="#3a2a1f" stroke-width="3" opacity="0.8"/><path d="M0 286 C 400 272 900 304 1600 280" fill="none" stroke="#3a2a1f" stroke-width="3" opacity="0.8"/><path d="M0 341 C 400 327 900 359 1600 335" fill="none" stroke="#3a2a1f" stroke-width="3" opacity="0.8"/><path d="M0 419 C 400 405 900 437 1600 413" fill="none" stroke="#3a2a1f" stroke-width="3" opacity="0.8"/><path d="M0 474 C 400 460 900 492 1600 468" fill="none" stroke="#3a2a1f" stroke-width="3" opacity="0.8"/><path d="M0 552 C 400 538 900 570 1600 546" fill="none" stroke="#3a2a1f" stroke-width="3" opacity="0.8"/><path d="M0 607 C 400 593 900 625 1600 601" fill="none" stroke="#3a2a1f" stroke-width="3" opacity="0.8"/><path d="M0 662 C 400 648 900 680 1600 656" fill="none" stroke="#3a2a1f" stroke-width="3" opacity="0.8"/><path d="M0 740 C 400 726 900 758 1600 734" fill="none" stroke="#3a2a1f" stroke-width="3" opacity="0.8"/><path d="M0 795 C 400 781 900 813 1600 789" fill="none" stroke="#3a2a1f" stroke-width="3" opacity="0.8"/><path d="M0 873 C 400 859 900 891 1600 867" fill="none" stroke="#3a2a1f" stroke-width="3" opacity="0.8"/>
    
    <rect x="60" y="50" width="230" height="285" fill="#ece3cf"/>
    <rect x="60" y="50" width="230" height="10" fill="#000" opacity="0.22"/>
    <rect x="60" y="50" width="8" height="285" fill="#000" opacity="0.12"/>
    
    <g transform="translate(100 93) scale(1.5)" fill="none" stroke="#27231e" stroke-width="2.6" stroke-linecap="round" stroke-linejoin="round" opacity="1">
  <path d="M0 34 q14 -12 28 0 t 28 0 t 28 0 t 28 0"/>
  <path d="M0 54 q14 -12 28 0 t 28 0 t 28 0 t 28 0"/>
  <path d="M0 74 q14 -12 28 0 t 28 0 t 28 0 t 28 0"/></g>
    
    <rect x="118.9" y="273" width="112.2" height="38" fill="#b3903f" rx="3"/>
    <rect x="124.9" y="279" width="100.2" height="26" fill="#ece3cf" rx="2"/>
    <text x="175" y="298" font-size="17" font-weight="600" fill="#27231e" text-anchor="middle" letter-spacing="3">WATER</text>
    
    <rect x="310" y="50" width="230" height="285" fill="#ece3cf"/>
    <rect x="310" y="50" width="230" height="10" fill="#000" opacity="0.22"/>
    <rect x="310" y="50" width="8" height="285" fill="#000" opacity="0.12"/>
    
    <g transform="translate(350 93) scale(1.5)" fill="none" stroke="#27231e" stroke-width="2.6" stroke-linecap="round" stroke-linejoin="round" opacity="1">
  <circle cx="50" cy="50" r="42"/>
  <path d="M50 8 a30 42 0 0 1 0 84 a30 42 0 0 1 0 -84"/>
  <path d="M50 8 V92"/>
  <path d="M8 50 H92 M15 29 H85 M15 71 H85"/></g>
    
    <rect x="379.1" y="273" width="91.9" height="38" fill="#b3903f" rx="3"/>
    <rect x="385.1" y="279" width="79.9" height="26" fill="#ece3cf" rx="2"/>
    <text x="425" y="298" font-size="17" font-weight="600" fill="#27231e" text-anchor="middle" letter-spacing="3">IRON</text>
    
    <rect x="560" y="50" width="230" height="285" fill="#ece3cf"/>
    <rect x="560" y="50" width="230" height="10" fill="#000" opacity="0.22"/>
    <rect x="560" y="50" width="8" height="285" fill="#000" opacity="0.12"/>
    
    <g transform="translate(600 93) scale(1.5)" fill="none" stroke="#27231e" stroke-width="2.6" stroke-linecap="round" stroke-linejoin="round" opacity="1">
  <path d="M22 90 Q20 74 40 72 H62 Q80 74 78 90 Z"/>
  <path d="M30 72 Q30 58 48 57 Q68 58 68 72"/>
  <path d="M38 57 Q38 44 50 43 Q62 44 61 57"/>
  <path d="M44 43 Q44 32 51 32 Q58 33 57 43"/>
  <path d="M8 90 H92"/></g>
    
    <rect x="619.5" y="273" width="111" height="38" fill="#b3903f" rx="3"/>
    <rect x="625.5" y="279" width="99" height="26" fill="#ece3cf" rx="2"/>
    <text x="675" y="298" font-size="17" font-weight="600" fill="#27231e" text-anchor="middle" letter-spacing="3">EBONY</text>
    
    <rect x="810" y="50" width="230" height="285" fill="#ece3cf"/>
    <rect x="810" y="50" width="230" height="10" fill="#000" opacity="0.22"/>
    <rect x="810" y="50" width="8" height="285" fill="#000" opacity="0.12"/>
    
    <g transform="translate(850 93) scale(1.5)" fill="none" stroke="#27231e" stroke-width="2.6" stroke-linecap="round" stroke-linejoin="round" opacity="1">
  <path d="M20 36 L34 18 H66 L80 36 L50 86 Z"/>
  <path d="M20 36 H80 M34 18 L42 36 L50 18 L58 36 L66 18 M42 36 L50 86 L58 36"/></g>
    
    <rect x="872.5" y="273" width="105.1" height="38" fill="#b3903f" rx="3"/>
    <rect x="878.5" y="279" width="93.1" height="26" fill="#ece3cf" rx="2"/>
    <text x="925" y="298" font-size="17" font-weight="600" fill="#27231e" text-anchor="middle" letter-spacing="3">IVORY</text>
    
    <rect x="1060" y="50" width="480" height="285" fill="#ece3cf"/>
    <rect x="1060" y="50" width="480" height="10" fill="#000" opacity="0.22"/>
    <rect x="1060" y="50" width="8" height="285" fill="#000" opacity="0.12"/>
    <ellipse cx="1300" cy="175" rx="240" ry="150" fill="url(#c3-specimen-cabinet--lit)"/>
    <g transform="translate(1225 93) scale(1.5)" fill="none" stroke="#27231e" stroke-width="2.6" stroke-linecap="round" stroke-linejoin="round" opacity="1">
  <path d="M28 45 H72 C74 38 78 32 84 33 C91 34 92 44 86 50 C92 56 91 66 84 67 C78 68 74 62 72 55 H28 C26 62 22 68 16 67 C9 66 8 56 14 50 C8 44 9 34 16 33 C22 32 26 38 28 45 Z"/></g>
    
    <rect x="1251.6" y="273" width="96.8" height="38" fill="#b3903f" rx="3"/>
    <rect x="1257.6" y="279" width="84.8" height="26" fill="#ece3cf" rx="2"/>
    <text x="1300" y="298" font-size="17" font-weight="600" fill="#b23a2a" text-anchor="middle" letter-spacing="3">BONE</text>
    
    <rect x="60" y="355" width="230" height="285" fill="#ece3cf"/>
    <rect x="60" y="355" width="230" height="10" fill="#000" opacity="0.22"/>
    <rect x="60" y="355" width="8" height="285" fill="#000" opacity="0.12"/>
    
    <g transform="translate(100 398) scale(1.5)" fill="none" stroke="#27231e" stroke-width="2.6" stroke-linecap="round" stroke-linejoin="round" opacity="1">
  <circle cx="50" cy="50" r="42"/><circle cx="50" cy="50" r="31"/>
  <path d="M50 6 L57 50 L50 94 L43 50 Z"/>
  <path d="M6 50 L50 43 L94 50 L50 57 Z"/>
  <path d="M22 22 L50 50 M78 78 L50 50 M78 22 L50 50 M22 78 L50 50"/></g>
    
    <rect x="91.7" y="578" width="166.5" height="38" fill="#b3903f" rx="3"/>
    <rect x="97.7" y="584" width="154.5" height="26" fill="#ece3cf" rx="2"/>
    <text x="175" y="603" font-size="17" font-weight="600" fill="#27231e" text-anchor="middle" letter-spacing="3">ADVENTURE</text>
    
    <rect x="310" y="355" width="230" height="285" fill="#ece3cf"/>
    <rect x="310" y="355" width="230" height="10" fill="#000" opacity="0.22"/>
    <rect x="310" y="355" width="8" height="285" fill="#000" opacity="0.12"/>
    
    <g transform="translate(350 398) scale(1.5)" fill="none" stroke="#27231e" stroke-width="2.6" stroke-linecap="round" stroke-linejoin="round" opacity="1">
  <circle cx="50" cy="50" r="21"/>
  <path d="M50 4 V18 M50 82 V96 M4 50 H18 M82 50 H96
           M17 17 L27 27 M73 73 L83 83 M83 17 L73 27 M27 73 L17 83"/></g>
    
    <rect x="350.5" y="578" width="149.1" height="38" fill="#b3903f" rx="3"/>
    <rect x="356.5" y="584" width="137.1" height="26" fill="#ece3cf" rx="2"/>
    <text x="425" y="603" font-size="17" font-weight="600" fill="#27231e" text-anchor="middle" letter-spacing="3">THE GODS</text>
    
    <rect x="560" y="355" width="230" height="285" fill="#ece3cf"/>
    <rect x="560" y="355" width="230" height="10" fill="#000" opacity="0.22"/>
    <rect x="560" y="355" width="8" height="285" fill="#000" opacity="0.12"/>
    
    
    
    
    
    <rect x="810" y="355" width="230" height="285" fill="#ece3cf"/>
    <rect x="810" y="355" width="230" height="10" fill="#000" opacity="0.22"/>
    <rect x="810" y="355" width="8" height="285" fill="#000" opacity="0.12"/>
    
    
    
    
    
    <rect x="1060" y="355" width="230" height="285" fill="#ece3cf"/>
    <rect x="1060" y="355" width="230" height="10" fill="#000" opacity="0.22"/>
    <rect x="1060" y="355" width="8" height="285" fill="#000" opacity="0.12"/>
    
    
    
    
    
    <rect x="1310" y="355" width="230" height="285" fill="#ece3cf"/>
    <rect x="1310" y="355" width="230" height="10" fill="#000" opacity="0.22"/>
    <rect x="1310" y="355" width="8" height="285" fill="#000" opacity="0.12"/>
    
    
    
    
    
    <rect x="60" y="668" width="1480" height="182" fill="#ece3cf"/>
    <rect x="74" y="682" width="1452" height="154" fill="none" opacity="0.4" stroke="#27231e" stroke-width="1.2"/>
    <circle cx="90" cy="698" r="7" fill="#b3903f"/><circle cx="1510" cy="698" r="7" fill="#b3903f"/><circle cx="90" cy="820" r="7" fill="#b3903f"/><circle cx="1510" cy="820" r="7" fill="#b3903f"/>
    <clipPath id="c3-specimen-cabinet--sung-11"><rect x="192.3" y="700.8" width="954.5" height="122.7"/></clipPath>
<text x="800" y="791.7" font-size="90.9" font-weight="700" fill="#27231e" text-anchor="middle" textLength="1215.5" lengthAdjust="spacing">EBONY, IVORY, AND BONE</text>
<text x="800" y="791.7" font-size="90.9" font-weight="700" fill="#b23a2a" text-anchor="middle" textLength="1215.5" lengthAdjust="spacing" clip-path="url(#c3-specimen-cabinet--sung-11)">EBONY, IVORY, AND BONE</text></g>
  <clipPath id="c3-specimen-cabinet--hero-clip"><rect width="1600" height="900"/></clipPath>

  <!-- ── Apparatus ── -->
  <rect y="900" width="1600" height="360" fill="#08080a"/>
  <rect y="900" width="1600" height="2" fill="#23232a"/>
  <text class="sheet-label" x="40" y="938" font-size="16" letter-spacing="3" fill="#e8e5de">C3-SPECIMEN-CABINET · SPECIMEN CABINET</text>
  <text class="sheet-label" x="1560" y="938" font-size="16" letter-spacing="3" fill="#77746d" text-anchor="end">SECTION VARIATION — THE SAME STYLE AT FIVE POINTS IN THE SONG</text>

    <g clip-path="url(#c3-specimen-cabinet--thumb-0)">
      <g transform="translate(40 960) scale(0.1775)">
        
  <rect x="0" y="0" width="1600" height="900" fill="#2e2119"/>
  <path d="M0 20 C 400 6 900 38 1600 14" fill="none" stroke="#3a2a1f" stroke-width="3" opacity="0.8"/><path d="M0 89 C 400 75 900 107 1600 83" fill="none" stroke="#3a2a1f" stroke-width="3" opacity="0.8"/><path d="M0 158 C 400 144 900 176 1600 152" fill="none" stroke="#3a2a1f" stroke-width="3" opacity="0.8"/><path d="M0 227 C 400 213 900 245 1600 221" fill="none" stroke="#3a2a1f" stroke-width="3" opacity="0.8"/><path d="M0 296 C 400 282 900 314 1600 290" fill="none" stroke="#3a2a1f" stroke-width="3" opacity="0.8"/><path d="M0 342 C 400 328 900 360 1600 336" fill="none" stroke="#3a2a1f" stroke-width="3" opacity="0.8"/><path d="M0 411 C 400 397 900 429 1600 405" fill="none" stroke="#3a2a1f" stroke-width="3" opacity="0.8"/><path d="M0 480 C 400 466 900 498 1600 474" fill="none" stroke="#3a2a1f" stroke-width="3" opacity="0.8"/><path d="M0 549 C 400 535 900 567 1600 543" fill="none" stroke="#3a2a1f" stroke-width="3" opacity="0.8"/><path d="M0 618 C 400 604 900 636 1600 612" fill="none" stroke="#3a2a1f" stroke-width="3" opacity="0.8"/><path d="M0 664 C 400 650 900 682 1600 658" fill="none" stroke="#3a2a1f" stroke-width="3" opacity="0.8"/><path d="M0 733 C 400 719 900 751 1600 727" fill="none" stroke="#3a2a1f" stroke-width="3" opacity="0.8"/><path d="M0 802 C 400 788 900 820 1600 796" fill="none" stroke="#3a2a1f" stroke-width="3" opacity="0.8"/><path d="M0 871 C 400 857 900 889 1600 865" fill="none" stroke="#3a2a1f" stroke-width="3" opacity="0.8"/>
        
    <rect x="60" y="50" width="230" height="285" fill="#ece3cf"/>
    <rect x="60" y="50" width="230" height="10" fill="#000" opacity="0.22"/>
    <rect x="60" y="50" width="8" height="285" fill="#000" opacity="0.12"/>
    
    
    
    
    <rect x="310" y="50" width="230" height="285" fill="#ece3cf"/>
    <rect x="310" y="50" width="230" height="10" fill="#000" opacity="0.22"/>
    <rect x="310" y="50" width="8" height="285" fill="#000" opacity="0.12"/>
    
    
    
    
    <rect x="560" y="50" width="230" height="285" fill="#ece3cf"/>
    <rect x="560" y="50" width="230" height="10" fill="#000" opacity="0.22"/>
    <rect x="560" y="50" width="8" height="285" fill="#000" opacity="0.12"/>
    
    
    
    
    <rect x="810" y="50" width="230" height="285" fill="#ece3cf"/>
    <rect x="810" y="50" width="230" height="10" fill="#000" opacity="0.22"/>
    <rect x="810" y="50" width="8" height="285" fill="#000" opacity="0.12"/>
    
    
    
    
    <rect x="1060" y="50" width="230" height="285" fill="#ece3cf"/>
    <rect x="1060" y="50" width="230" height="10" fill="#000" opacity="0.22"/>
    <rect x="1060" y="50" width="8" height="285" fill="#000" opacity="0.12"/>
    
    
    
    
    <rect x="1310" y="50" width="230" height="285" fill="#ece3cf"/>
    <rect x="1310" y="50" width="230" height="10" fill="#000" opacity="0.22"/>
    <rect x="1310" y="50" width="8" height="285" fill="#000" opacity="0.12"/>
    
    
    
    
    <rect x="60" y="355" width="230" height="285" fill="#ece3cf"/>
    <rect x="60" y="355" width="230" height="10" fill="#000" opacity="0.22"/>
    <rect x="60" y="355" width="8" height="285" fill="#000" opacity="0.12"/>
    
    
    
    
    <rect x="310" y="355" width="230" height="285" fill="#ece3cf"/>
    <rect x="310" y="355" width="230" height="10" fill="#000" opacity="0.22"/>
    <rect x="310" y="355" width="8" height="285" fill="#000" opacity="0.12"/>
    
    
    
    
    <rect x="560" y="355" width="230" height="285" fill="#ece3cf"/>
    <rect x="560" y="355" width="230" height="10" fill="#000" opacity="0.22"/>
    <rect x="560" y="355" width="8" height="285" fill="#000" opacity="0.12"/>
    
    
    
    
    <rect x="810" y="355" width="230" height="285" fill="#ece3cf"/>
    <rect x="810" y="355" width="230" height="10" fill="#000" opacity="0.22"/>
    <rect x="810" y="355" width="8" height="285" fill="#000" opacity="0.12"/>
    
    
    
    
    <rect x="1060" y="355" width="230" height="285" fill="#ece3cf"/>
    <rect x="1060" y="355" width="230" height="10" fill="#000" opacity="0.22"/>
    <rect x="1060" y="355" width="8" height="285" fill="#000" opacity="0.12"/>
    
    
    
    
    <rect x="1310" y="355" width="230" height="285" fill="#ece3cf"/>
    <rect x="1310" y="355" width="230" height="10" fill="#000" opacity="0.22"/>
    <rect x="1310" y="355" width="8" height="285" fill="#000" opacity="0.12"/>
    
    
    
    
        <rect x="420" y="330" width="760" height="240" fill="#b3903f" rx="8"/>
        <rect x="440" y="350" width="720" height="200" fill="none" opacity="0.6" stroke="#2e2119" stroke-width="3"/>
        <text x="800" y="470" font-size="74" font-weight="700" fill="#2e2119" text-anchor="middle">INTO THE WILD</text>
        <text x="800" y="525" font-size="26" font-weight="600" fill="#2e2119" text-anchor="middle" letter-spacing="12">HAVRE DE GRACE</text></g>
    </g>
    <rect x="40" y="960" width="284" height="160" fill="none" stroke="#23232a" stroke-width="1"/>
    <text class="sheet-label" x="40" y="1146" font-size="15" letter-spacing="2.4" fill="#b23a2a">TITLE</text>
    <text class="sheet-note" x="40" y="1170" font-size="14.5" fill="#77746d">An empty drawer and its engraved brass</text>
    <text class="sheet-note" x="40" y="1189" font-size="14.5" fill="#77746d">nameplate. The band name leaves with it.</text>

    <g clip-path="url(#c3-specimen-cabinet--thumb-1)">
      <g transform="translate(349 960) scale(0.1775)">
        
  <rect x="0" y="0" width="1600" height="900" fill="#2e2119"/>
  <path d="M0 20 C 400 6 900 38 1600 14" fill="none" stroke="#3a2a1f" stroke-width="3" opacity="0.8"/><path d="M0 103 C 400 89 900 121 1600 97" fill="none" stroke="#3a2a1f" stroke-width="3" opacity="0.8"/><path d="M0 163 C 400 149 900 181 1600 157" fill="none" stroke="#3a2a1f" stroke-width="3" opacity="0.8"/><path d="M0 223 C 400 209 900 241 1600 217" fill="none" stroke="#3a2a1f" stroke-width="3" opacity="0.8"/><path d="M0 283 C 400 269 900 301 1600 277" fill="none" stroke="#3a2a1f" stroke-width="3" opacity="0.8"/><path d="M0 343 C 400 329 900 361 1600 337" fill="none" stroke="#3a2a1f" stroke-width="3" opacity="0.8"/><path d="M0 426 C 400 412 900 444 1600 420" fill="none" stroke="#3a2a1f" stroke-width="3" opacity="0.8"/><path d="M0 486 C 400 472 900 504 1600 480" fill="none" stroke="#3a2a1f" stroke-width="3" opacity="0.8"/><path d="M0 546 C 400 532 900 564 1600 540" fill="none" stroke="#3a2a1f" stroke-width="3" opacity="0.8"/><path d="M0 606 C 400 592 900 624 1600 600" fill="none" stroke="#3a2a1f" stroke-width="3" opacity="0.8"/><path d="M0 666 C 400 652 900 684 1600 660" fill="none" stroke="#3a2a1f" stroke-width="3" opacity="0.8"/><path d="M0 726 C 400 712 900 744 1600 720" fill="none" stroke="#3a2a1f" stroke-width="3" opacity="0.8"/><path d="M0 809 C 400 795 900 827 1600 803" fill="none" stroke="#3a2a1f" stroke-width="3" opacity="0.8"/><path d="M0 869 C 400 855 900 887 1600 863" fill="none" stroke="#3a2a1f" stroke-width="3" opacity="0.8"/>
        
    <rect x="60" y="50" width="230" height="285" fill="#ece3cf"/>
    <rect x="60" y="50" width="230" height="10" fill="#000" opacity="0.22"/>
    <rect x="60" y="50" width="8" height="285" fill="#000" opacity="0.12"/>
    
    <g transform="translate(100 93) scale(1.5)" fill="none" stroke="#27231e" stroke-width="2.6" stroke-linecap="round" stroke-linejoin="round" opacity="1">
  <circle cx="50" cy="50" r="42"/><circle cx="50" cy="50" r="31"/>
  <path d="M50 6 L57 50 L50 94 L43 50 Z"/>
  <path d="M6 50 L50 43 L94 50 L50 57 Z"/>
  <path d="M22 22 L50 50 M78 78 L50 50 M78 22 L50 50 M22 78 L50 50"/></g>
    
    <rect x="91.7" y="273" width="166.5" height="38" fill="#b3903f" rx="3"/>
    <rect x="97.7" y="279" width="154.5" height="26" fill="#ece3cf" rx="2"/>
    <text x="175" y="298" font-size="17" font-weight="600" fill="#27231e" text-anchor="middle" letter-spacing="3">ADVENTURE</text>
        
    <rect x="310" y="50" width="230" height="285" fill="#ece3cf"/>
    <rect x="310" y="50" width="230" height="10" fill="#000" opacity="0.22"/>
    <rect x="310" y="50" width="8" height="285" fill="#000" opacity="0.12"/>
    
    <g transform="translate(350 93) scale(1.5)" fill="none" stroke="#27231e" stroke-width="2.6" stroke-linecap="round" stroke-linejoin="round" opacity="0.35">
  <circle cx="50" cy="50" r="42"/><circle cx="50" cy="50" r="31"/>
  <path d="M50 6 L57 50 L50 94 L43 50 Z"/>
  <path d="M6 50 L50 43 L94 50 L50 57 Z"/>
  <path d="M22 22 L50 50 M78 78 L50 50 M78 22 L50 50 M22 78 L50 50"/></g>
    
    <rect x="350" y="273" width="149.9" height="38" fill="#b3903f" rx="3"/>
    <rect x="356" y="279" width="137.9" height="26" fill="#ece3cf" rx="2"/>
    <text x="425" y="298" font-size="17" font-weight="600" fill="#27231e" text-anchor="middle" letter-spacing="3" opacity="0.5">LOST WAY</text>
        
    <rect x="560" y="50" width="230" height="285" fill="#ece3cf"/>
    <rect x="560" y="50" width="230" height="10" fill="#000" opacity="0.22"/>
    <rect x="560" y="50" width="8" height="285" fill="#000" opacity="0.12"/>
    
    <g transform="translate(600 93) scale(1.5)" fill="none" stroke="#27231e" stroke-width="2.6" stroke-linecap="round" stroke-linejoin="round" opacity="1">
  <path d="M20 36 L34 18 H66 L80 36 L50 86 Z"/>
  <path d="M20 36 H80 M34 18 L42 36 L50 18 L58 36 L66 18 M42 36 L50 86 L58 36"/></g>
    
    <rect x="591.9" y="273" width="166.2" height="38" fill="#b3903f" rx="3"/>
    <rect x="597.9" y="279" width="154.2" height="26" fill="#ece3cf" rx="2"/>
    <text x="675" y="298" font-size="17" font-weight="600" fill="#27231e" text-anchor="middle" letter-spacing="3">SPLENDOUR</text>
        
    <rect x="810" y="50" width="230" height="285" fill="#ece3cf"/>
    <rect x="810" y="50" width="230" height="10" fill="#000" opacity="0.22"/>
    <rect x="810" y="50" width="8" height="285" fill="#000" opacity="0.12"/>
    <ellipse cx="925" cy="175" rx="115" ry="150" fill="url(#c3-specimen-cabinet--lit)"/>
    <g transform="translate(850 93) scale(1.5)" fill="none" stroke="#27231e" stroke-width="2.6" stroke-linecap="round" stroke-linejoin="round" opacity="1">
  <circle cx="50" cy="50" r="21"/>
  <path d="M50 4 V18 M50 82 V96 M4 50 H18 M82 50 H96
           M17 17 L27 27 M73 73 L83 83 M83 17 L73 27 M27 73 L17 83"/></g>
    
    <rect x="850.5" y="273" width="149.1" height="38" fill="#b3903f" rx="3"/>
    <rect x="856.5" y="279" width="137.1" height="26" fill="#ece3cf" rx="2"/>
    <text x="925" y="298" font-size="17" font-weight="600" fill="#b23a2a" text-anchor="middle" letter-spacing="3">THE GODS</text>
        
    <rect x="1060" y="50" width="230" height="285" fill="#ece3cf"/>
    <rect x="1060" y="50" width="230" height="10" fill="#000" opacity="0.22"/>
    <rect x="1060" y="50" width="8" height="285" fill="#000" opacity="0.12"/>
    
    
    
    
        
    <rect x="1310" y="50" width="230" height="285" fill="#ece3cf"/>
    <rect x="1310" y="50" width="230" height="10" fill="#000" opacity="0.22"/>
    <rect x="1310" y="50" width="8" height="285" fill="#000" opacity="0.12"/>
    
    
    
    
        
    <rect x="60" y="355" width="230" height="285" fill="#ece3cf"/>
    <rect x="60" y="355" width="230" height="10" fill="#000" opacity="0.22"/>
    <rect x="60" y="355" width="8" height="285" fill="#000" opacity="0.12"/>
    
    
    
    
    <rect x="310" y="355" width="230" height="285" fill="#ece3cf"/>
    <rect x="310" y="355" width="230" height="10" fill="#000" opacity="0.22"/>
    <rect x="310" y="355" width="8" height="285" fill="#000" opacity="0.12"/>
    
    
    
    
    <rect x="560" y="355" width="230" height="285" fill="#ece3cf"/>
    <rect x="560" y="355" width="230" height="10" fill="#000" opacity="0.22"/>
    <rect x="560" y="355" width="8" height="285" fill="#000" opacity="0.12"/>
    
    
    
    
    <rect x="810" y="355" width="230" height="285" fill="#ece3cf"/>
    <rect x="810" y="355" width="230" height="10" fill="#000" opacity="0.22"/>
    <rect x="810" y="355" width="8" height="285" fill="#000" opacity="0.12"/>
    
    
    
    
    <rect x="1060" y="355" width="230" height="285" fill="#ece3cf"/>
    <rect x="1060" y="355" width="230" height="10" fill="#000" opacity="0.22"/>
    <rect x="1060" y="355" width="8" height="285" fill="#000" opacity="0.12"/>
    
    
    
    
    <rect x="1310" y="355" width="230" height="285" fill="#ece3cf"/>
    <rect x="1310" y="355" width="230" height="10" fill="#000" opacity="0.22"/>
    <rect x="1310" y="355" width="8" height="285" fill="#000" opacity="0.12"/>
    
    
    
    
        
    <rect x="60" y="668" width="1480" height="182" fill="#ece3cf"/>
    <rect x="74" y="682" width="1452" height="154" fill="none" opacity="0.4" stroke="#27231e" stroke-width="1.2"/>
    <circle cx="90" cy="698" r="7" fill="#b3903f"/><circle cx="1510" cy="698" r="7" fill="#b3903f"/><circle cx="90" cy="820" r="7" fill="#b3903f"/><circle cx="1510" cy="820" r="7" fill="#b3903f"/>
    <clipPath id="c3-specimen-cabinet--sung-8"><rect x="168.2" y="720.2" width="335.8" height="81.8"/></clipPath>
<text x="800" y="780.8" font-size="60.6" font-weight="700" fill="#27231e" text-anchor="middle" textLength="1263.6" lengthAdjust="spacing">THE GODS HID ABOUT WHEN THEY MADE</text>
<text x="800" y="780.8" font-size="60.6" font-weight="700" fill="#b23a2a" text-anchor="middle" textLength="1263.6" lengthAdjust="spacing" clip-path="url(#c3-specimen-cabinet--sung-8)">THE GODS HID ABOUT WHEN THEY MADE</text></g>
    </g>
    <rect x="349" y="960" width="284" height="160" fill="none" stroke="#23232a" stroke-width="1"/>
    <text class="sheet-label" x="349" y="1146" font-size="15" letter-spacing="2.4" fill="#b23a2a">VERSE</text>
    <text class="sheet-note" x="349" y="1170" font-size="14.5" fill="#77746d">The drawer fills a card at a time. Only the</text>
    <text class="sheet-note" x="349" y="1189" font-size="14.5" fill="#77746d">specimen being sung is lit.</text>

    <g clip-path="url(#c3-specimen-cabinet--thumb-2)">
      <g transform="translate(658 960) scale(0.1775)">
        
  <rect x="0" y="0" width="1600" height="900" fill="#2e2119"/>
  <path d="M0 20 C 400 6 900 38 1600 14" fill="none" stroke="#3a2a1f" stroke-width="3" opacity="0.8"/><path d="M0 94 C 400 80 900 112 1600 88" fill="none" stroke="#3a2a1f" stroke-width="3" opacity="0.8"/><path d="M0 168 C 400 154 900 186 1600 162" fill="none" stroke="#3a2a1f" stroke-width="3" opacity="0.8"/><path d="M0 219 C 400 205 900 237 1600 213" fill="none" stroke="#3a2a1f" stroke-width="3" opacity="0.8"/><path d="M0 293 C 400 279 900 311 1600 287" fill="none" stroke="#3a2a1f" stroke-width="3" opacity="0.8"/><path d="M0 344 C 400 330 900 362 1600 338" fill="none" stroke="#3a2a1f" stroke-width="3" opacity="0.8"/><path d="M0 418 C 400 404 900 436 1600 412" fill="none" stroke="#3a2a1f" stroke-width="3" opacity="0.8"/><path d="M0 469 C 400 455 900 487 1600 463" fill="none" stroke="#3a2a1f" stroke-width="3" opacity="0.8"/><path d="M0 543 C 400 529 900 561 1600 537" fill="none" stroke="#3a2a1f" stroke-width="3" opacity="0.8"/><path d="M0 617 C 400 603 900 635 1600 611" fill="none" stroke="#3a2a1f" stroke-width="3" opacity="0.8"/><path d="M0 668 C 400 654 900 686 1600 662" fill="none" stroke="#3a2a1f" stroke-width="3" opacity="0.8"/><path d="M0 742 C 400 728 900 760 1600 736" fill="none" stroke="#3a2a1f" stroke-width="3" opacity="0.8"/><path d="M0 793 C 400 779 900 811 1600 787" fill="none" stroke="#3a2a1f" stroke-width="3" opacity="0.8"/><path d="M0 867 C 400 853 900 885 1600 861" fill="none" stroke="#3a2a1f" stroke-width="3" opacity="0.8"/>
        <rect x="60" y="50" width="1480" height="590" fill="#dfe3cf"/>
        <g transform="translate(20 330) scale(2.6)" fill="none" stroke="#27231e" stroke-width="2.4" stroke-linecap="round" stroke-linejoin="round" opacity="0.8">
  <path d="M50 6 L30 36 H40 L24 60 H38 L18 86 H82 L62 60 H76 L60 36 H70 Z"/>
  <path d="M50 86 V96"/></g><g transform="translate(150 255) scale(3.3)" fill="none" stroke="#27231e" stroke-width="2.4" stroke-linecap="round" stroke-linejoin="round" opacity="0.8">
  <path d="M50 6 L30 36 H40 L24 60 H38 L18 86 H82 L62 60 H76 L60 36 H70 Z"/>
  <path d="M50 86 V96"/></g><g transform="translate(350 250) scale(2.6)" fill="none" stroke="#27231e" stroke-width="2.4" stroke-linecap="round" stroke-linejoin="round" opacity="0.8">
  <path d="M50 6 L30 36 H40 L24 60 H38 L18 86 H82 L62 60 H76 L60 36 H70 Z"/>
  <path d="M50 86 V96"/></g><g transform="translate(480 295) scale(3.3)" fill="none" stroke="#27231e" stroke-width="2.4" stroke-linecap="round" stroke-linejoin="round" opacity="0.8">
  <path d="M50 6 L30 36 H40 L24 60 H38 L18 86 H82 L62 60 H76 L60 36 H70 Z"/>
  <path d="M50 86 V96"/></g><g transform="translate(680 290) scale(2.6)" fill="none" stroke="#27231e" stroke-width="2.4" stroke-linecap="round" stroke-linejoin="round" opacity="0.8">
  <path d="M50 6 L30 36 H40 L24 60 H38 L18 86 H82 L62 60 H76 L60 36 H70 Z"/>
  <path d="M50 86 V96"/></g><g transform="translate(810 215) scale(3.3)" fill="none" stroke="#27231e" stroke-width="2.4" stroke-linecap="round" stroke-linejoin="round" opacity="0.8">
  <path d="M50 6 L30 36 H40 L24 60 H38 L18 86 H82 L62 60 H76 L60 36 H70 Z"/>
  <path d="M50 86 V96"/></g><g transform="translate(1010 330) scale(2.6)" fill="none" stroke="#27231e" stroke-width="2.4" stroke-linecap="round" stroke-linejoin="round" opacity="0.8">
  <path d="M50 6 L30 36 H40 L24 60 H38 L18 86 H82 L62 60 H76 L60 36 H70 Z"/>
  <path d="M50 86 V96"/></g><g transform="translate(1140 255) scale(3.3)" fill="none" stroke="#27231e" stroke-width="2.4" stroke-linecap="round" stroke-linejoin="round" opacity="0.8">
  <path d="M50 6 L30 36 H40 L24 60 H38 L18 86 H82 L62 60 H76 L60 36 H70 Z"/>
  <path d="M50 86 V96"/></g><g transform="translate(1340 250) scale(2.6)" fill="none" stroke="#27231e" stroke-width="2.4" stroke-linecap="round" stroke-linejoin="round" opacity="0.8">
  <path d="M50 6 L30 36 H40 L24 60 H38 L18 86 H82 L62 60 H76 L60 36 H70 Z"/>
  <path d="M50 86 V96"/></g>
        <g transform="translate(985 355) scale(2.3)" fill="none" stroke="#b23a2a" stroke-width="3.2" stroke-linecap="round" stroke-linejoin="round" opacity="1">
  <circle cx="63" cy="13" r="8"/>
  <path d="M59 22 L49 52"/>
  <path d="M57 28 L70 40 L80 32"/>
  <path d="M57 28 L43 38 L34 30"/>
  <path d="M49 52 L66 62 L62 84 L70 86"/>
  <path d="M49 52 L38 72 L20 68"/></g>
        <line x1="60" y1="600" x2="1540" y2="600" stroke="#27231e" stroke-width="3"/>
        
    <rect x="60" y="668" width="1480" height="182" fill="#ece3cf"/>
    <rect x="74" y="682" width="1452" height="154" fill="none" opacity="0.4" stroke="#27231e" stroke-width="1.2"/>
    <circle cx="90" cy="698" r="7" fill="#b3903f"/><circle cx="1510" cy="698" r="7" fill="#b3903f"/><circle cx="90" cy="820" r="7" fill="#b3903f"/><circle cx="1510" cy="820" r="7" fill="#b3903f"/>
    <clipPath id="c3-specimen-cabinet--sung-9"><rect x="214.3" y="713.3" width="622.9" height="96.4"/></clipPath>
<text x="800" y="784.7" font-size="71.4" font-weight="700" fill="#27231e" text-anchor="middle" textLength="1171.4" lengthAdjust="spacing">SO I'M RUNNING INTO THE WILD</text>
<text x="800" y="784.7" font-size="71.4" font-weight="700" fill="#b23a2a" text-anchor="middle" textLength="1171.4" lengthAdjust="spacing" clip-path="url(#c3-specimen-cabinet--sung-9)">SO I'M RUNNING INTO THE WILD</text></g>
    </g>
    <rect x="658" y="960" width="284" height="160" fill="none" stroke="#23232a" stroke-width="1"/>
    <text class="sheet-label" x="658" y="1146" font-size="15" letter-spacing="2.4" fill="#b23a2a">CHORUS</text>
    <text class="sheet-note" x="658" y="1170" font-size="14.5" fill="#77746d">The dividers are down and the back of the</text>
    <text class="sheet-note" x="658" y="1189" font-size="14.5" fill="#77746d">drawer is open. The specimens got out.</text>

    <g clip-path="url(#c3-specimen-cabinet--thumb-3)">
      <g transform="translate(967 960) scale(0.1775)">
        
  <rect x="0" y="0" width="1600" height="900" fill="#2e2119"/>
  <path d="M0 20 C 400 6 900 38 1600 14" fill="none" stroke="#3a2a1f" stroke-width="3" opacity="0.8"/><path d="M0 85 C 400 71 900 103 1600 79" fill="none" stroke="#3a2a1f" stroke-width="3" opacity="0.8"/><path d="M0 150 C 400 136 900 168 1600 144" fill="none" stroke="#3a2a1f" stroke-width="3" opacity="0.8"/><path d="M0 215 C 400 201 900 233 1600 209" fill="none" stroke="#3a2a1f" stroke-width="3" opacity="0.8"/><path d="M0 280 C 400 266 900 298 1600 274" fill="none" stroke="#3a2a1f" stroke-width="3" opacity="0.8"/><path d="M0 345 C 400 331 900 363 1600 339" fill="none" stroke="#3a2a1f" stroke-width="3" opacity="0.8"/><path d="M0 410 C 400 396 900 428 1600 404" fill="none" stroke="#3a2a1f" stroke-width="3" opacity="0.8"/><path d="M0 475 C 400 461 900 493 1600 469" fill="none" stroke="#3a2a1f" stroke-width="3" opacity="0.8"/><path d="M0 540 C 400 526 900 558 1600 534" fill="none" stroke="#3a2a1f" stroke-width="3" opacity="0.8"/><path d="M0 605 C 400 591 900 623 1600 599" fill="none" stroke="#3a2a1f" stroke-width="3" opacity="0.8"/><path d="M0 670 C 400 656 900 688 1600 664" fill="none" stroke="#3a2a1f" stroke-width="3" opacity="0.8"/><path d="M0 735 C 400 721 900 753 1600 729" fill="none" stroke="#3a2a1f" stroke-width="3" opacity="0.8"/><path d="M0 800 C 400 786 900 818 1600 794" fill="none" stroke="#3a2a1f" stroke-width="3" opacity="0.8"/><path d="M0 865 C 400 851 900 883 1600 859" fill="none" stroke="#3a2a1f" stroke-width="3" opacity="0.8"/>
        <rect x="60" y="50" width="1480" height="800" fill="#4a1f1c"/>
        <rect x="90" y="80" width="1420" height="740" fill="#6b2a25"/>
        <g transform="translate(240 170) scale(5.6) rotate(-30 50 50)" fill="none" stroke="#ece3cf" stroke-width="1.8" stroke-linecap="round" stroke-linejoin="round" opacity="0.9">
  <path d="M50 32 c15 0 21 10 21 19 c0 6 -4 10 -4 16 c0 11 -8 19 -17 19 s-17 -8 -17 -19 c0 -6 -4 -10 -4 -16 c0 -9 6 -19 21 -19 z"/>
  <path d="M44 6 H56 V32 H44 Z"/>
  <path d="M41 2 H59 V8 H41 Z"/>
  <circle cx="50" cy="57" r="7"/>
  <path d="M40 76 H60"/>
  <path d="M46 8 V32 M50 8 V32 M54 8 V32"/></g>
        <g transform="translate(900 230) scale(4.2) rotate(18 50 50)" fill="none" stroke="#b3903f" stroke-width="2.2" stroke-linecap="round" stroke-linejoin="round" opacity="0.95">
  <rect x="40" y="6" width="20" height="30" rx="10"/>
  <path d="M34 26 q0 20 16 20 q16 0 16 -20"/>
  <path d="M50 46 V88 M34 94 L50 88 L66 94"/>
  <path d="M40 16 H60 M40 24 H60"/></g>
        <rect x="640" y="780" width="320" height="44" fill="#b3903f" rx="3"/></g>
    </g>
    <rect x="967" y="960" width="284" height="160" fill="none" stroke="#23232a" stroke-width="1"/>
    <text class="sheet-label" x="967" y="1146" font-size="15" letter-spacing="2.4" fill="#b23a2a">HORNS</text>
    <text class="sheet-note" x="967" y="1170" font-size="14.5" fill="#77746d">No placard. The drawer becomes an instrument</text>
    <text class="sheet-note" x="967" y="1189" font-size="14.5" fill="#77746d">case; the lid label is the only type.</text>

    <g clip-path="url(#c3-specimen-cabinet--thumb-4)">
      <g transform="translate(1276 960) scale(0.1775)">
        
  <rect x="0" y="0" width="1600" height="900" fill="#2e2119"/>
  <path d="M0 20 C 400 6 900 38 1600 14" fill="none" stroke="#3a2a1f" stroke-width="3" opacity="0.8"/><path d="M0 99 C 400 85 900 117 1600 93" fill="none" stroke="#3a2a1f" stroke-width="3" opacity="0.8"/><path d="M0 155 C 400 141 900 173 1600 149" fill="none" stroke="#3a2a1f" stroke-width="3" opacity="0.8"/><path d="M0 234 C 400 220 900 252 1600 228" fill="none" stroke="#3a2a1f" stroke-width="3" opacity="0.8"/><path d="M0 290 C 400 276 900 308 1600 284" fill="none" stroke="#3a2a1f" stroke-width="3" opacity="0.8"/><path d="M0 346 C 400 332 900 364 1600 340" fill="none" stroke="#3a2a1f" stroke-width="3" opacity="0.8"/><path d="M0 425 C 400 411 900 443 1600 419" fill="none" stroke="#3a2a1f" stroke-width="3" opacity="0.8"/><path d="M0 481 C 400 467 900 499 1600 475" fill="none" stroke="#3a2a1f" stroke-width="3" opacity="0.8"/><path d="M0 537 C 400 523 900 555 1600 531" fill="none" stroke="#3a2a1f" stroke-width="3" opacity="0.8"/><path d="M0 616 C 400 602 900 634 1600 610" fill="none" stroke="#3a2a1f" stroke-width="3" opacity="0.8"/><path d="M0 672 C 400 658 900 690 1600 666" fill="none" stroke="#3a2a1f" stroke-width="3" opacity="0.8"/><path d="M0 728 C 400 714 900 746 1600 722" fill="none" stroke="#3a2a1f" stroke-width="3" opacity="0.8"/><path d="M0 807 C 400 793 900 825 1600 801" fill="none" stroke="#3a2a1f" stroke-width="3" opacity="0.8"/><path d="M0 863 C 400 849 900 881 1600 857" fill="none" stroke="#3a2a1f" stroke-width="3" opacity="0.8"/>
        
    <rect x="60" y="50" width="230" height="285" fill="#ece3cf"/>
    <rect x="60" y="50" width="230" height="10" fill="#000" opacity="0.22"/>
    <rect x="60" y="50" width="8" height="285" fill="#000" opacity="0.12"/>
    
    <g transform="translate(100 93) scale(1.5)" fill="none" stroke="#27231e" stroke-width="2.6" stroke-linecap="round" stroke-linejoin="round" opacity="0.35">
  <circle cx="50" cy="50" r="42"/><circle cx="50" cy="50" r="31"/>
  <path d="M50 6 L57 50 L50 94 L43 50 Z"/>
  <path d="M6 50 L50 43 L94 50 L50 57 Z"/>
  <path d="M22 22 L50 50 M78 78 L50 50 M78 22 L50 50 M22 78 L50 50"/></g>
    
    <rect x="91.7" y="273" width="166.5" height="38" fill="#b3903f" rx="3"/>
    <rect x="97.7" y="279" width="154.5" height="26" fill="#ece3cf" rx="2"/>
    <text x="175" y="298" font-size="17" font-weight="600" fill="#27231e" text-anchor="middle" letter-spacing="3" opacity="0.5">ADVENTURE</text>
        
    <rect x="310" y="50" width="230" height="285" fill="#ece3cf"/>
    <rect x="310" y="50" width="230" height="10" fill="#000" opacity="0.22"/>
    <rect x="310" y="50" width="8" height="285" fill="#000" opacity="0.12"/>
    
    <g transform="translate(350 93) scale(1.5)" fill="none" stroke="#27231e" stroke-width="2.6" stroke-linecap="round" stroke-linejoin="round" opacity="0.35">
  <path d="M20 36 L34 18 H66 L80 36 L50 86 Z"/>
  <path d="M20 36 H80 M34 18 L42 36 L50 18 L58 36 L66 18 M42 36 L50 86 L58 36"/></g>
    
    <rect x="344.6" y="273" width="160.8" height="38" fill="#b3903f" rx="3"/>
    <rect x="350.6" y="279" width="148.8" height="26" fill="#ece3cf" rx="2"/>
    <text x="425" y="298" font-size="17" font-weight="600" fill="#27231e" text-anchor="middle" letter-spacing="3" opacity="0.5">TREASURES</text>
        
    <rect x="560" y="50" width="230" height="285" fill="#ece3cf"/>
    <rect x="560" y="50" width="230" height="10" fill="#000" opacity="0.22"/>
    <rect x="560" y="50" width="8" height="285" fill="#000" opacity="0.12"/>
    
    <g transform="translate(600 93) scale(1.5)" fill="none" stroke="#27231e" stroke-width="2.6" stroke-linecap="round" stroke-linejoin="round" opacity="1">
  <path d="M18 66 L12 24 L34 44 L50 14 L66 44 L88 24 L82 66 Z"/>
  <path d="M16 66 H84 V80 H16 Z"/>
  <circle cx="12" cy="24" r="4"/><circle cx="50" cy="14" r="4"/><circle cx="88" cy="24" r="4"/></g>
    <line x1="595" y1="100" x2="755" y2="240" stroke="#b23a2a" stroke-width="5" stroke-linecap="round"/><line x1="755" y1="100" x2="595" y2="240" stroke="#b23a2a" stroke-width="5" stroke-linecap="round"/>
    <rect x="580" y="273" width="190" height="38" fill="#b3903f" rx="3"/>
    <rect x="586" y="279" width="178" height="26" fill="#ece3cf" rx="2"/>
    <text x="675" y="298" font-size="17" font-weight="600" fill="#27231e" text-anchor="middle" letter-spacing="3">SILVER, GOLD</text>
        
    <rect x="810" y="50" width="230" height="285" fill="#ece3cf"/>
    <rect x="810" y="50" width="230" height="10" fill="#000" opacity="0.22"/>
    <rect x="810" y="50" width="8" height="285" fill="#000" opacity="0.12"/>
    
    <g transform="translate(850 93) scale(1.5)" fill="none" stroke="#27231e" stroke-width="2.6" stroke-linecap="round" stroke-linejoin="round" opacity="1">
  <path d="M4 78 L16 46 L28 52 L40 24 L54 40 L66 18 L80 44 L96 78 Z"/>
  <path d="M40 24 L44 50 L36 64 M66 18 L62 44 L70 60 M16 46 L22 66"/>
  <path d="M2 86 H98 M12 94 H40 M56 94 H88"/></g>
    
    <rect x="852.8" y="273" width="144.5" height="38" fill="#b3903f" rx="3"/>
    <rect x="858.8" y="279" width="132.5" height="26" fill="#ece3cf" rx="2"/>
    <text x="925" y="298" font-size="17" font-weight="600" fill="#27231e" text-anchor="middle" letter-spacing="3">GLACIERS</text>
        
    <rect x="1060" y="50" width="230" height="285" fill="#ece3cf"/>
    <rect x="1060" y="50" width="230" height="10" fill="#000" opacity="0.22"/>
    <rect x="1060" y="50" width="8" height="285" fill="#000" opacity="0.12"/>
    
    <g transform="translate(1100 93) scale(1.5)" fill="none" stroke="#27231e" stroke-width="2.6" stroke-linecap="round" stroke-linejoin="round" opacity="1">
  <circle cx="50" cy="28" r="7"/>
  <path d="M50 21 q-10 -16 0 -18 q10 2 0 18 M57 28 q16 -10 18 0 q-2 10 -18 0 M50 35 q10 16 0 18 q-10 -2 0 -18 M43 28 q-16 10 -18 0 q2 -10 18 0"/>
  <path d="M50 53 V94"/>
  <path d="M50 76 q-20 -2 -24 -16 q18 0 24 16 Z M50 68 q18 -2 22 -14 q-16 0 -22 14 Z"/></g>
    
    <rect x="1104.5" y="273" width="141" height="38" fill="#b3903f" rx="3"/>
    <rect x="1110.5" y="279" width="129" height="26" fill="#ece3cf" rx="2"/>
    <text x="1175" y="298" font-size="17" font-weight="600" fill="#27231e" text-anchor="middle" letter-spacing="3">GARDENS</text>
        
    <rect x="1310" y="50" width="230" height="285" fill="#ece3cf"/>
    <rect x="1310" y="50" width="230" height="10" fill="#000" opacity="0.22"/>
    <rect x="1310" y="50" width="8" height="285" fill="#000" opacity="0.12"/>
    <ellipse cx="1425" cy="175" rx="115" ry="150" fill="url(#c3-specimen-cabinet--lit)"/>
    <g transform="translate(1350 93) scale(1.5)" fill="none" stroke="#27231e" stroke-width="2.6" stroke-linecap="round" stroke-linejoin="round" opacity="1">
  <path d="M2 90 L10 50 Q20 16 50 12 Q82 14 92 48 L98 90 Z"/>
  <path d="M24 90 V66 Q26 36 50 34 Q74 36 76 66 V90"/>
  <path d="M36 40 L40 52 L44 38 M56 38 L59 48 L63 40"/>
  <path d="M30 90 q6 -6 12 0 M56 90 q6 -6 12 0"/></g>
    
    <rect x="1355.3" y="273" width="139.5" height="38" fill="#b3903f" rx="3"/>
    <rect x="1361.3" y="279" width="127.5" height="26" fill="#ece3cf" rx="2"/>
    <text x="1425" y="298" font-size="17" font-weight="600" fill="#b23a2a" text-anchor="middle" letter-spacing="3">GROTTOS</text>
        
    <rect x="60" y="355" width="230" height="285" fill="#ece3cf"/>
    <rect x="60" y="355" width="230" height="10" fill="#000" opacity="0.22"/>
    <rect x="60" y="355" width="8" height="285" fill="#000" opacity="0.12"/>
    
    
    
    
    <rect x="310" y="355" width="230" height="285" fill="#ece3cf"/>
    <rect x="310" y="355" width="230" height="10" fill="#000" opacity="0.22"/>
    <rect x="310" y="355" width="8" height="285" fill="#000" opacity="0.12"/>
    
    
    
    
    <rect x="560" y="355" width="230" height="285" fill="#ece3cf"/>
    <rect x="560" y="355" width="230" height="10" fill="#000" opacity="0.22"/>
    <rect x="560" y="355" width="8" height="285" fill="#000" opacity="0.12"/>
    
    
    
    
    <rect x="810" y="355" width="230" height="285" fill="#ece3cf"/>
    <rect x="810" y="355" width="230" height="10" fill="#000" opacity="0.22"/>
    <rect x="810" y="355" width="8" height="285" fill="#000" opacity="0.12"/>
    
    
    
    
    <rect x="1060" y="355" width="230" height="285" fill="#ece3cf"/>
    <rect x="1060" y="355" width="230" height="10" fill="#000" opacity="0.22"/>
    <rect x="1060" y="355" width="8" height="285" fill="#000" opacity="0.12"/>
    
    
    
    
    <rect x="1310" y="355" width="230" height="285" fill="#ece3cf"/>
    <rect x="1310" y="355" width="230" height="10" fill="#000" opacity="0.22"/>
    <rect x="1310" y="355" width="8" height="285" fill="#000" opacity="0.12"/>
    
    
    
    
        
    <rect x="60" y="668" width="1480" height="182" fill="#ece3cf"/>
    <rect x="74" y="682" width="1452" height="154" fill="none" opacity="0.4" stroke="#27231e" stroke-width="1.2"/>
    <circle cx="90" cy="698" r="7" fill="#b3903f"/><circle cx="1510" cy="698" r="7" fill="#b3903f"/><circle cx="90" cy="820" r="7" fill="#b3903f"/><circle cx="1510" cy="820" r="7" fill="#b3903f"/>
    <clipPath id="c3-specimen-cabinet--sung-10"><rect x="174.6" y="726.2" width="1250.8" height="69.2"/></clipPath>
<text x="800" y="777.5" font-size="51.3" font-weight="700" fill="#27231e" text-anchor="middle" textLength="1250.8" lengthAdjust="spacing">I MEAN GLACIERS AND GARDENS AND GROTTOS</text>
<text x="800" y="777.5" font-size="51.3" font-weight="700" fill="#b23a2a" text-anchor="middle" textLength="1250.8" lengthAdjust="spacing" clip-path="url(#c3-specimen-cabinet--sung-10)">I MEAN GLACIERS AND GARDENS AND GROTTOS</text></g>
    </g>
    <rect x="1276" y="960" width="284" height="160" fill="none" stroke="#23232a" stroke-width="1"/>
    <text class="sheet-label" x="1276" y="1146" font-size="15" letter-spacing="2.4" fill="#b23a2a">VERSE 3</text>
    <text class="sheet-note" x="1276" y="1170" font-size="14.5" fill="#77746d">Glaciers, gardens, grottos: three cards lit on</text>
    <text class="sheet-note" x="1276" y="1189" font-size="14.5" fill="#77746d">their own three words. Gold is crossed out.</text>

    <rect x="40" y="1206" width="22" height="22" fill="#2e2119" stroke="#23232a" stroke-width="1"/>
    <text class="sheet-note" x="71" y="1223" font-size="14.5" fill="#77746d">Walnut #2E2119</text>
    <rect x="208.60000000000002" y="1206" width="22" height="22" fill="#ece3cf" stroke="#23232a" stroke-width="1"/>
    <text class="sheet-note" x="239.60000000000002" y="1223" font-size="14.5" fill="#77746d">Card #ECE3CF</text>
    <rect x="362.40000000000003" y="1206" width="22" height="22" fill="#27231e" stroke="#23232a" stroke-width="1"/>
    <text class="sheet-note" x="393.40000000000003" y="1223" font-size="14.5" fill="#77746d">Ink #27231E</text>
    <rect x="508.80000000000007" y="1206" width="22" height="22" fill="#b3903f" stroke="#23232a" stroke-width="1"/>
    <text class="sheet-note" x="539.8000000000001" y="1223" font-size="14.5" fill="#77746d">Brass #B3903F</text>
    <rect x="670" y="1206" width="22" height="22" fill="#b23a2a" stroke="#23232a" stroke-width="1"/>
    <text class="sheet-note" x="701" y="1223" font-size="14.5" fill="#77746d">Stamp #B23A2A</text>
</svg>
