<svg xmlns="http://www.w3.org/2000/svg" viewBox="0 0 1600 900" width="1600" height="900" role="img" aria-label="Ghost — Monotype — the ghost print, album style still"><style>@import url('https://fonts.googleapis.com/css2?family=Jost:wght@300;400;500;600;700&amp;display=swap');
  svg text { font-family: "Jost", "Helvetica Neue", Helvetica, Arial, sans-serif; font-variant-ligatures: none; }</style><rect x="0" y="0" width="1600" height="900" fill="#ece4d2"/>
    <rect x="24" y="24" width="1552" height="686" rx="5" fill="none" stroke="#d9cfb9" stroke-width="3"/>
    <rect x="26" y="26" width="1548" height="682" rx="4" fill="none" stroke="#fff8ea" stroke-width="1.5" opacity="0.7"/>
    <defs><clipPath id="ghost--hero-plate"><rect x="34" y="34" width="1532" height="666"/></clipPath>
    <filter id="ghost--hero-smear" x="-10%" y="-10%" width="120%" height="120%">
      <feTurbulence type="fractalNoise" baseFrequency="0.011 0.02" numOctaves="3" seed="7" result="n"/>
      <feDisplacementMap in="SourceGraphic" in2="n" scale="46" xChannelSelector="R" yChannelSelector="G"/>
    </filter>
    <filter id="ghost--hero-blot" x="-20%" y="-30%" width="140%" height="160%">
      <feTurbulence type="fractalNoise" baseFrequency="0.016 0.03" numOctaves="2" seed="3" result="n"/>
      <feDisplacementMap in="SourceGraphic" in2="n" scale="16" xChannelSelector="R" yChannelSelector="G" result="d"/>
      <feGaussianBlur in="d" stdDeviation="0.8"/>
    </filter>
    <filter id="ghost--hero-smudge" x="-5%" y="-10%" width="110%" height="120%">
      <feTurbulence type="fractalNoise" baseFrequency="0.03 0.05" numOctaves="2" seed="13" result="n"/>
      <feDisplacementMap in="SourceGraphic" in2="n" scale="10" xChannelSelector="R" yChannelSelector="G"/>
    </filter>
    <filter id="ghost--hero-drag" x="-5%" y="-15%" width="110%" height="130%">
      <feTurbulence type="fractalNoise" baseFrequency="0.07 0.004" numOctaves="2" seed="19" result="n"/>
      <feDisplacementMap in="SourceGraphic" in2="n" scale="16" xChannelSelector="R" yChannelSelector="G" result="d"/>
      <feGaussianBlur in="d" stdDeviation="1.4"/>
    </filter>
    <filter id="ghost--hero-lift" x="-30%" y="-20%" width="160%" height="140%">
      <feTurbulence type="fractalNoise" baseFrequency="0.02 0.035" numOctaves="3" seed="23" result="n"/>
      <feDisplacementMap in="SourceGraphic" in2="n" scale="24" xChannelSelector="R" yChannelSelector="G" result="d"/>
      <feGaussianBlur in="d" stdDeviation="3.5"/>
    </filter>
    <filter id="ghost--hero-haze" x="-30%" y="-60%" width="160%" height="220%">
      <feGaussianBlur stdDeviation="28"/>
    </filter>
    <pattern id="ghost--hero-streaks" patternUnits="userSpaceOnUse" width="140" height="900">
      <rect x="0" y="0" width="5.4" height="900" fill="#ece4d2" opacity="0.14"/><rect x="15.9" y="0" width="5.2" height="900" fill="#1b1915" opacity="0.15"/><rect x="33.9" y="0" width="3.4" height="900" fill="#ece4d2" opacity="0.06"/><rect x="50.9" y="0" width="2.7" height="900" fill="#ece4d2" opacity="0.09"/><rect x="65.4" y="0" width="6.6" height="900" fill="#ece4d2" opacity="0.1"/><rect x="85.1" y="0" width="2.3" height="900" fill="#ece4d2" opacity="0.07"/><rect x="90.7" y="0" width="6" height="900" fill="#ece4d2" opacity="0.13"/><rect x="111.1" y="0" width="2.6" height="900" fill="#1b1915" opacity="0.09"/><rect x="124.4" y="0" width="3.7" height="900" fill="#ece4d2" opacity="0.04"/>
    </pattern>
    <filter id="ghost--hero-soft" x="-40%" y="-40%" width="180%" height="180%">
      <feGaussianBlur stdDeviation="6.5"/>
    </filter>
    <filter id="ghost--hero-mottle" x="0" y="0" width="100%" height="100%">
      <feTurbulence type="fractalNoise" baseFrequency="0.006 0.011" numOctaves="4" seed="11" result="n"/>
      <feColorMatrix in="n" type="matrix" values="0 0 0 0 0.545  0 0 0 0 0.522  0 0 0 0 0.502  0 0 0 1.6 -0.55" result="a"/>
      <feComposite in="a" in2="SourceGraphic" operator="in"/>
    </filter></defs>
    <g clip-path="url(#ghost--hero-plate)">
      <rect x="34" y="34" width="1532" height="666" fill="#ece4d2"/>
      
    <rect x="34" y="34" width="1532" height="666" fill="#8b8580" opacity="0.22"/>
    <rect x="34" y="34" width="1532" height="666" fill="#000" filter="url(#ghost--hero-mottle)" opacity="0.9"/>
    <rect x="34" y="446.9" width="1532" height="253.1" fill="#8b8580" opacity="0.3"/>
    <g filter="url(#ghost--hero-smear)"><path d="M1133.6 148.5 q149.3 -62.5 298.6 8.5" stroke="#ece4d2" stroke-width="40" stroke-linecap="round" fill="none" opacity="0.59"/><path d="M266.8 227.7 q360.2 -40.2 720.5 19.1" stroke="#ece4d2" stroke-width="24" stroke-linecap="round" fill="none" opacity="0.62"/><path d="M950.6 390.1 q182 -52.5 363.9 12.2" stroke="#ece4d2" stroke-width="18.2" stroke-linecap="round" fill="none" opacity="0.42"/><path d="M1246.6 421.7 q314.3 -85 628.7 -7.4" stroke="#ece4d2" stroke-width="42.7" stroke-linecap="round" fill="none" opacity="0.41"/><path d="M719 322.2 q144.2 -92.8 288.5 13.7" stroke="#ece4d2" stroke-width="27.8" stroke-linecap="round" fill="none" opacity="0.61"/><path d="M915.7 189.5 q351.1 -89.6 702.3 -0.1" stroke="#ece4d2" stroke-width="29.2" stroke-linecap="round" fill="none" opacity="0.36"/><path d="M48.9 242.2 q170 -48.3 339.9 8.1" stroke="#ece4d2" stroke-width="33.3" stroke-linecap="round" fill="none" opacity="0.6"/></g>
      
    <ellipse cx="1150" cy="240" rx="429" ry="150" fill="#b5392a" opacity="0.2" filter="url(#ghost--hero-haze)"/>
    <g filter="url(#ghost--hero-blot)">
      <path d="M720.4 470 C710.9 421.2 761 402.8 774.8 361.5 C781.8 404.9 812.3 424.4 799.6 470 ZM735.1 470 C720.2 414.2 794.7 393.2 813.7 346.1 C828.6 395.6 879.2 417.9 859.3 470 ZM780.6 470 C767.1 405.6 826.6 381.2 838.5 326.8 C859.9 384.1 910.8 409.9 892.9 470 ZM825.4 470 C813.3 396.3 881.1 368.5 901.4 306.3 C906.1 371.8 942.1 401.3 926 470 ZM871.6 470 C856.9 340.2 918.9 291.1 930 181.5 C956.3 296.9 1013.8 348.8 994.2 470 ZM938.1 470 C926.7 340.5 979.3 291.5 991.1 182.1 C1006.6 297.3 1047.9 349.1 1032.7 470 ZM1019.3 470 C1010.3 339.7 1051.1 290.5 1060 180.5 C1072.7 296.3 1105.4 348.4 1093.5 470 ZM1052.4 470 C1041.1 329.1 1094.2 275.9 1106.3 156.9 C1121.3 282.1 1162.2 338.5 1147.1 470 ZM1082.4 470 C1068.3 385.9 1119.7 354.1 1124.9 283 C1158.3 357.8 1219.1 391.5 1200.2 470 ZM1162.3 470 C1153.3 325.7 1198.6 271.2 1210.2 149.4 C1219 277.6 1249.4 335.4 1237.4 470 ZM1212.6 470 C1199.3 338.6 1247.3 289 1252 178.1 C1283.6 294.8 1340.6 347.4 1323 470 ZM1285.9 470 C1272.8 375.1 1328.5 339.2 1338.8 259 C1361.3 343.4 1411.9 381.4 1394.5 470 ZM1372.2 470 C1363.5 397.2 1409.6 369.7 1422.4 308.2 C1428.6 372.9 1456.4 402 1444.8 470 ZM1424.6 470 C1413.2 375.6 1456.6 339.9 1461.9 260.2 C1487.2 344.1 1535.2 381.9 1520 470 Z" fill="#b5392a"/>
    </g>
    <rect x="700" y="500" width="900" height="40" fill="#b5392a" opacity="0.22" filter="url(#ghost--hero-smear)"/>
      <linearGradient id="ghost--hero-cityfade" x1="0" y1="0" x2="1" y2="0">
        <stop offset="0" stop-color="#fff" stop-opacity="0"/><stop offset="0.16" stop-color="#fff"/><stop offset="1" stop-color="#fff"/>
      </linearGradient>
      <mask id="ghost--hero-citymask" maskUnits="userSpaceOnUse" x="600" y="0" width="1000" height="900">
        <rect x="600" y="0" width="1000" height="900" fill="url(#ghost--hero-cityfade)"/>
      </mask>
      <g mask="url(#ghost--hero-citymask)">
        <clipPath id="ghost--hero-city-far"><path d="M600 560 V337.7 Q655.5 327.7 711 335.7 V560 ZM724.7 560 V449.7 Q762.8 439.7 801 447.7 V560 ZM756.7 445.7 V376.7 H764.4 V445.7 ZM817.9 560 V377.6 Q856.4 367.6 894.9 375.6 V560 ZM850.2 373.6 V325.9 H857.9 V373.6 ZM905.5 560 V378.2 Q942.5 368.2 979.5 376.2 V560 ZM990.3 560 V390.5 Q1029.5 380.5 1068.7 388.5 V560 ZM1087.3 560 V390.2 Q1152.9 380.2 1218.6 388.2 V560 ZM1230.4 560 V415.2 Q1298.2 405.2 1366 413.2 V560 ZM1287.4 411.2 V356.9 H1300.9 V411.2 ZM1372.7 560 V414.7 Q1414 404.7 1455.3 412.7 V560 ZM1407.4 410.7 V339.8 H1415.7 V410.7 ZM1461.4 560 V451.6 Q1501.6 441.6 1541.9 449.6 V560 ZM1559 560 V338.5 Q1607.1 328.5 1655.1 336.5 V560 Z"/></clipPath>
    <g filter="url(#ghost--hero-drag)">
      <path d="M600 560 V337.7 Q655.5 327.7 711 335.7 V560 ZM724.7 560 V449.7 Q762.8 439.7 801 447.7 V560 ZM756.7 445.7 V376.7 H764.4 V445.7 ZM817.9 560 V377.6 Q856.4 367.6 894.9 375.6 V560 ZM850.2 373.6 V325.9 H857.9 V373.6 ZM905.5 560 V378.2 Q942.5 368.2 979.5 376.2 V560 ZM990.3 560 V390.5 Q1029.5 380.5 1068.7 388.5 V560 ZM1087.3 560 V390.2 Q1152.9 380.2 1218.6 388.2 V560 ZM1230.4 560 V415.2 Q1298.2 405.2 1366 413.2 V560 ZM1287.4 411.2 V356.9 H1300.9 V411.2 ZM1372.7 560 V414.7 Q1414 404.7 1455.3 412.7 V560 ZM1407.4 410.7 V339.8 H1415.7 V410.7 ZM1461.4 560 V451.6 Q1501.6 441.6 1541.9 449.6 V560 ZM1559 560 V338.5 Q1607.1 328.5 1655.1 336.5 V560 Z" fill="#aaa39b"/>
      <rect x="600" y="230" width="966" height="360" fill="url(#ghost--hero-streaks)" clip-path="url(#ghost--hero-city-far)"/>
      <path d="M638 357.7 h8 v15.5 h-8 ZM614 391.7 h8 v13.9 h-8 ZM662 391.7 h8 v18.3 h-8 ZM686 391.7 h8 v15.9 h-8 ZM614 425.7 h8 v21.8 h-8 ZM662 425.7 h8 v19.1 h-8 ZM614 459.7 h8 v16.9 h-8 ZM638 459.7 h8 v21.5 h-8 ZM662 459.7 h8 v11.1 h-8 ZM686 459.7 h8 v16.6 h-8 ZM638 493.7 h8 v16.2 h-8 ZM855.9 431.6 h8 v12.9 h-8 ZM855.9 465.6 h8 v20.3 h-8 ZM919.5 432.2 h8 v19.7 h-8 ZM1004.3 410.5 h8 v14.2 h-8 ZM1028.3 410.5 h8 v18.8 h-8 ZM1028.3 444.5 h8 v21.9 h-8 ZM1004.3 478.5 h8 v13 h-8 ZM1028.3 478.5 h8 v11.4 h-8 ZM1125.3 410.2 h8 v16.1 h-8 ZM1173.3 410.2 h8 v20.8 h-8 ZM1101.3 478.2 h8 v13.1 h-8 ZM1125.3 478.2 h8 v12.7 h-8 ZM1197.3 478.2 h8 v16.5 h-8 ZM1244.4 435.2 h8 v14.3 h-8 ZM1292.4 435.2 h8 v14 h-8 ZM1316.4 435.2 h8 v18.5 h-8 ZM1340.4 435.2 h8 v18.7 h-8 ZM1244.4 469.2 h8 v10.7 h-8 ZM1268.4 469.2 h8 v18.4 h-8 ZM1340.4 469.2 h8 v11.7 h-8 ZM1386.7 434.7 h8 v16.6 h-8 ZM1410.7 434.7 h8 v20 h-8 ZM1475.4 471.6 h8 v18 h-8 ZM1499.4 471.6 h8 v18.4 h-8 ZM1621 392.5 h8 v10.9 h-8 ZM1573 426.5 h8 v11.8 h-8 ZM1597 460.5 h8 v18.8 h-8 Z" fill="#ece4d2" opacity="0.12"/>
    </g>
        <clipPath id="ghost--hero-city-mid"><path d="M620 640 V402.2 Q676.5 392.2 733 400.2 V640 ZM747.5 640 V480.5 Q817.2 470.5 886.8 478.5 V640 ZM895.3 640 V436.3 Q962.4 426.3 1029.6 434.3 V640 ZM1047.1 640 V471.7 Q1099.4 461.7 1151.8 469.7 V640 ZM1091 467.7 V427.8 H1101.5 V467.7 ZM1156.5 640 V415.5 Q1190.6 405.5 1224.7 413.5 V640 ZM1185.2 411.5 V361.8 H1192 V411.5 ZM1229.5 640 V433.9 Q1267.2 423.9 1304.8 431.9 V640 ZM1309.1 640 V435.6 Q1355.2 425.6 1401.3 433.6 V640 ZM1405.3 640 V463.6 Q1436.4 453.6 1467.4 461.6 V640 ZM1478.9 640 V387.1 Q1513 377.1 1547.2 385.1 V640 Z"/></clipPath>
    <g filter="url(#ghost--hero-drag)">
      <path d="M620 640 V402.2 Q676.5 392.2 733 400.2 V640 ZM747.5 640 V480.5 Q817.2 470.5 886.8 478.5 V640 ZM895.3 640 V436.3 Q962.4 426.3 1029.6 434.3 V640 ZM1047.1 640 V471.7 Q1099.4 461.7 1151.8 469.7 V640 ZM1091 467.7 V427.8 H1101.5 V467.7 ZM1156.5 640 V415.5 Q1190.6 405.5 1224.7 413.5 V640 ZM1185.2 411.5 V361.8 H1192 V411.5 ZM1229.5 640 V433.9 Q1267.2 423.9 1304.8 431.9 V640 ZM1309.1 640 V435.6 Q1355.2 425.6 1401.3 433.6 V640 ZM1405.3 640 V463.6 Q1436.4 453.6 1467.4 461.6 V640 ZM1478.9 640 V387.1 Q1513 377.1 1547.2 385.1 V640 Z" fill="#847d76"/>
      <rect x="620" y="250" width="946" height="420" fill="url(#ghost--hero-streaks)" clip-path="url(#ghost--hero-city-mid)"/>
      <path d="M634 422.2 h8 v13.9 h-8 ZM682 422.2 h8 v13.4 h-8 ZM658 456.2 h8 v19.9 h-8 ZM634 490.2 h8 v18.8 h-8 ZM634 558.2 h8 v10.6 h-8 ZM706 558.2 h8 v19.1 h-8 ZM761.5 500.5 h8 v17.3 h-8 ZM809.5 500.5 h8 v20.4 h-8 ZM785.5 534.5 h8 v19.1 h-8 ZM809.5 534.5 h8 v21.8 h-8 ZM957.3 456.3 h8 v16 h-8 ZM1005.3 490.3 h8 v18.3 h-8 ZM909.3 524.3 h8 v13.9 h-8 ZM981.3 524.3 h8 v11.8 h-8 ZM909.3 558.3 h8 v19.9 h-8 ZM933.3 558.3 h8 v12.6 h-8 ZM1109.1 525.7 h8 v10.5 h-8 ZM1170.5 503.5 h8 v11.2 h-8 ZM1170.5 571.5 h8 v17.1 h-8 ZM1194.5 571.5 h8 v12.9 h-8 ZM1267.5 453.9 h8 v21.3 h-8 ZM1243.5 487.9 h8 v10.3 h-8 ZM1267.5 487.9 h8 v20.4 h-8 ZM1243.5 521.9 h8 v15.9 h-8 ZM1243.5 555.9 h8 v10.8 h-8 ZM1323.1 455.6 h8 v11.1 h-8 ZM1347.1 455.6 h8 v14.7 h-8 ZM1323.1 489.6 h8 v13 h-8 ZM1371.1 489.6 h8 v11.4 h-8 ZM1323.1 523.6 h8 v19 h-8 ZM1347.1 523.6 h8 v16 h-8 ZM1347.1 557.6 h8 v11.4 h-8 ZM1443.3 483.6 h8 v21.4 h-8 ZM1516.9 407.1 h8 v10.8 h-8 ZM1492.9 441.1 h8 v11 h-8 ZM1516.9 509.1 h8 v19 h-8 ZM1516.9 543.1 h8 v12.7 h-8 Z" fill="#ece4d2" opacity="0.14"/>
    </g>
        <clipPath id="ghost--hero-city-near"><path d="M660 730 V433.2 Q692.1 423.2 724.3 431.2 V730 ZM687 429.2 V357.7 H693.4 V429.2 ZM735.3 730 V504.1 Q799.2 494.1 863.1 502.1 V730 ZM788.9 500.1 V434 H801.7 V500.1 ZM885 730 V472.4 Q935.4 462.4 985.7 470.4 V730 ZM1000.4 730 V462.1 Q1050.5 452.1 1100.6 460.1 V730 ZM1114.1 730 V570.5 Q1142.7 560.5 1171.3 568.5 V730 ZM1186.3 730 V510 Q1232.8 500 1279.2 508 V730 ZM1284.2 730 V589.5 Q1315.8 579.5 1347.5 587.5 V730 ZM1354.8 730 V464.5 Q1421.5 454.5 1488.2 462.5 V730 ZM1410.8 460.5 V415.6 H1424.2 V460.5 ZM1507.6 730 V551 Q1560.7 541 1613.9 549 V730 Z"/></clipPath>
    <g filter="url(#ghost--hero-drag)">
      <path d="M660 730 V433.2 Q692.1 423.2 724.3 431.2 V730 ZM687 429.2 V357.7 H693.4 V429.2 ZM735.3 730 V504.1 Q799.2 494.1 863.1 502.1 V730 ZM788.9 500.1 V434 H801.7 V500.1 ZM885 730 V472.4 Q935.4 462.4 985.7 470.4 V730 ZM1000.4 730 V462.1 Q1050.5 452.1 1100.6 460.1 V730 ZM1114.1 730 V570.5 Q1142.7 560.5 1171.3 568.5 V730 ZM1186.3 730 V510 Q1232.8 500 1279.2 508 V730 ZM1284.2 730 V589.5 Q1315.8 579.5 1347.5 587.5 V730 ZM1354.8 730 V464.5 Q1421.5 454.5 1488.2 462.5 V730 ZM1410.8 460.5 V415.6 H1424.2 V460.5 ZM1507.6 730 V551 Q1560.7 541 1613.9 549 V730 Z" fill="#5e5852"/>
      <rect x="660" y="300" width="906" height="460" fill="url(#ghost--hero-streaks)" clip-path="url(#ghost--hero-city-near)"/>
      <path d="M674 453.2 h8 v13.6 h-8 ZM674 487.2 h8 v11.5 h-8 ZM698 555.2 h8 v17.8 h-8 ZM674 589.2 h8 v10.3 h-8 ZM674 623.2 h8 v16.5 h-8 ZM674 657.2 h8 v13.6 h-8 ZM749.3 524.1 h8 v13.6 h-8 ZM821.3 524.1 h8 v14.5 h-8 ZM773.3 558.1 h8 v16.8 h-8 ZM797.3 558.1 h8 v10.1 h-8 ZM749.3 592.1 h8 v16.6 h-8 ZM821.3 592.1 h8 v17.1 h-8 ZM797.3 626.1 h8 v12.9 h-8 ZM773.3 660.1 h8 v19.9 h-8 ZM923 492.4 h8 v17 h-8 ZM947 526.4 h8 v19.7 h-8 ZM899 560.4 h8 v11.1 h-8 ZM923 594.4 h8 v20.3 h-8 ZM899 628.4 h8 v13.2 h-8 ZM899 662.4 h8 v21.4 h-8 ZM1062.4 482.1 h8 v19.4 h-8 ZM1014.4 550.1 h8 v20.1 h-8 ZM1038.4 584.1 h8 v10.4 h-8 ZM1062.4 584.1 h8 v13.2 h-8 ZM1014.4 652.1 h8 v10.5 h-8 ZM1038.4 652.1 h8 v14.7 h-8 ZM1062.4 652.1 h8 v14 h-8 ZM1128.1 590.5 h8 v18.4 h-8 ZM1128.1 624.5 h8 v11.1 h-8 ZM1248.3 530 h8 v13.6 h-8 ZM1200.3 564 h8 v17.1 h-8 ZM1200.3 598 h8 v18.1 h-8 ZM1224.3 598 h8 v15.8 h-8 ZM1248.3 598 h8 v15.6 h-8 ZM1224.3 632 h8 v17 h-8 ZM1248.3 632 h8 v18.5 h-8 ZM1224.3 666 h8 v10.9 h-8 ZM1298.2 609.5 h8 v20.9 h-8 ZM1322.2 609.5 h8 v10.6 h-8 ZM1298.2 643.5 h8 v20.2 h-8 ZM1368.8 484.5 h8 v12.2 h-8 ZM1392.8 484.5 h8 v14.2 h-8 ZM1392.8 518.5 h8 v12 h-8 ZM1416.8 518.5 h8 v16 h-8 ZM1416.8 552.5 h8 v12.1 h-8 ZM1464.8 552.5 h8 v21.5 h-8 ZM1368.8 586.5 h8 v21.7 h-8 ZM1392.8 586.5 h8 v14.5 h-8 ZM1464.8 586.5 h8 v19.9 h-8 ZM1368.8 620.5 h8 v11.3 h-8 ZM1416.8 620.5 h8 v18.9 h-8 ZM1440.8 620.5 h8 v15 h-8 ZM1464.8 620.5 h8 v11 h-8 ZM1416.8 654.5 h8 v18.9 h-8 ZM1593.6 571 h8 v16.4 h-8 ZM1521.6 605 h8 v12.9 h-8 ZM1545.6 605 h8 v11.2 h-8 ZM1569.6 605 h8 v20.1 h-8 ZM1593.6 605 h8 v12.2 h-8 ZM1521.6 639 h8 v10.8 h-8 ZM1569.6 639 h8 v19 h-8 Z" fill="#ece4d2" opacity="0.16"/>
    </g>
      </g>
      <g filter="url(#ghost--hero-smear)" transform="translate(230 706) scale(1)">
    
    <rect x="-125" y="-300" width="250" height="150" rx="6" fill="#1b1915" opacity="0.5"/>
    <circle cx="-58" cy="-225" r="44" fill="#8b8580" opacity="0.8"/><circle cx="-58" cy="-225" r="15.4" fill="#1b1915" opacity="0.5"/><circle cx="58" cy="-225" r="44" fill="#8b8580" opacity="0.8"/><circle cx="58" cy="-225" r="15.4" fill="#1b1915" opacity="0.5"/>
    
    <rect x="-125" y="-150" width="250" height="150" rx="6" fill="#1b1915" opacity="0.5"/>
    <circle cx="-58" cy="-75" r="44" fill="#8b8580" opacity="0.8"/><circle cx="-58" cy="-75" r="15.4" fill="#1b1915" opacity="0.5"/><circle cx="58" cy="-75" r="44" fill="#8b8580" opacity="0.8"/><circle cx="58" cy="-75" r="15.4" fill="#1b1915" opacity="0.5"/>
    
    <rect x="-105" y="-390" width="210" height="86" rx="6" fill="#1b1915" opacity="0.5"/>
    <circle cx="0" cy="-347" r="22" fill="#8b8580" opacity="0.8"/><circle cx="0" cy="-347" r="7.7" fill="#1b1915" opacity="0.5"/>
  </g>
      
    <linearGradient id="ghost--hero-figure-fade" x1="0" y1="0" x2="0" y2="1">
      <stop offset="0" stop-color="#fff"/><stop offset="0.62" stop-color="#fff"/><stop offset="1" stop-color="#fff" stop-opacity="0"/>
    </linearGradient>
    <mask id="ghost--hero-figure-mask" maskUnits="userSpaceOnUse" x="80" y="242" width="840" height="504">
      <rect x="80" y="242" width="840" height="504" fill="url(#ghost--hero-figure-fade)"/>
    </mask>
    <clipPath id="ghost--hero-figure-clip"><path d="M481.1 357.5 C479 384.8 424.4 389 416 418.4 C411.8 477.2 437 494 437 544.4 C432.8 620 445.4 670.4 449.6 714 L550.4 714 C554.6 662 567.2 599 563 536 C558.8 494 560.5 477.2 560.5 443.6 C634.4 418.4 710 393.2 768.8 378.5 C794 372.2 794 351.2 764.6 353.3 C701.6 361.7 626 376.4 571.4 391.1 C550.4 380.6 521 384.8 518.9 357.5 Z M468.5 326 a31.5 37.8 0 1 0 63 0 a31.5 37.8 0 1 0 -63 0 Z"/></clipPath>
    <path d="M323.6 704 C290 368 458 233.6 626 292.4 S857 410 731 515 S689 704 626 704 Z" fill="#1b1915" opacity="0.2" filter="url(#ghost--hero-smear)"/>
    <g mask="url(#ghost--hero-figure-mask)" opacity="0.92">
      <g filter="url(#ghost--hero-lift)">
        <path d="M481.1 357.5 C479 384.8 424.4 389 416 418.4 C411.8 477.2 437 494 437 544.4 C432.8 620 445.4 670.4 449.6 714 L550.4 714 C554.6 662 567.2 599 563 536 C558.8 494 560.5 477.2 560.5 443.6 C634.4 418.4 710 393.2 768.8 378.5 C794 372.2 794 351.2 764.6 353.3 C701.6 361.7 626 376.4 571.4 391.1 C550.4 380.6 521 384.8 518.9 357.5 Z M468.5 326 a31.5 37.8 0 1 0 63 0 a31.5 37.8 0 1 0 -63 0 Z" fill="#ece4d2"/>
        <g clip-path="url(#ghost--hero-figure-clip)">
          <rect x="80" y="284" width="840" height="462" fill="#000" filter="url(#ghost--hero-mottle)" opacity="0.3"/>
          <path d="M374 621.6 q147 -58.8 336 -84" stroke="#8b8580" stroke-width="14" fill="none" opacity="0.18"/><path d="M374 537.8 q147 -58.8 336 -84" stroke="#8b8580" stroke-width="16.1" fill="none" opacity="0.16"/><path d="M374 428.1 q147 -58.8 336 -84" stroke="#8b8580" stroke-width="16.8" fill="none" opacity="0.13"/>
        </g>
      </g>
    </g>
    </g>
    <g opacity="1"><text x="800" y="825.7" font-size="71.4" font-weight="700" fill="#1b1915" text-anchor="middle">BUT YOU'RE ON FIRE AND I'M A GHOST</text></g></svg>
