<svg xmlns="http://www.w3.org/2000/svg" viewBox="0 0 1600 900" width="1600" height="900" role="img" aria-label="Meet Me at the Horizon — Mezzotint, album style still"><style>@import url('https://fonts.googleapis.com/css2?family=Jost:wght@300;400;500;600;700&amp;display=swap');
  svg text { font-family: "Jost", "Helvetica Neue", Helvetica, Arial, sans-serif; font-variant-ligatures: none; }</style><defs>
    <linearGradient id="meet-me-at-the-horizon--hero-sky" x1="0" y1="0" x2="0" y2="1">
      <stop offset="0" stop-color="#1b1915"/>
      <stop offset="0.35" stop-color="#38332b"/>
      <stop offset="0.62" stop-color="#8a7f6e"/>
      <stop offset="0.72" stop-color="#cdc3ad"/>
      <stop offset="1" stop-color="#cdc3ad"/>
    </linearGradient>
    <radialGradient id="meet-me-at-the-horizon--hero-dawn" cx="0.64" cy="0.87" r="0.6">
      <stop offset="0" stop-color="#d7a24a" stop-opacity="1"/>
      <stop offset="0.4" stop-color="#d7a24a" stop-opacity="0.429"/>
      <stop offset="1" stop-color="#d7a24a" stop-opacity="0"/>
    </radialGradient>
    <linearGradient id="meet-me-at-the-horizon--hero-shaft" x1="0" y1="0" x2="0" y2="1">
      <stop offset="0" stop-color="#a09380" stop-opacity="0.679"/>
      <stop offset="1" stop-color="#a09380" stop-opacity="0"/>
    </linearGradient>
    <radialGradient id="meet-me-at-the-horizon--hero-spill" cx="0.5" cy="0.5" r="0.5">
      <stop offset="0" stop-color="#897657" stop-opacity="0.8"/>
      <stop offset="1" stop-color="#766b5a" stop-opacity="0"/>
    </radialGradient>
    <linearGradient id="meet-me-at-the-horizon--hero-wall" x1="0" y1="0" x2="1" y2="0">
      <stop offset="0" stop-color="#1b1915"/>
      <stop offset="0.42" stop-color="#2f2b25"/>
      <stop offset="0.58" stop-color="#2f2b25"/>
      <stop offset="1" stop-color="#1b1915"/>
    </linearGradient>
    <filter id="meet-me-at-the-horizon--hero-soft" x="-20%" y="-20%" width="140%" height="140%"><feGaussianBlur stdDeviation="5"/></filter>
    <filter id="meet-me-at-the-horizon--hero-bloom" x="-50%" y="-50%" width="200%" height="200%"><feGaussianBlur stdDeviation="22"/></filter>
    <filter id="meet-me-at-the-horizon--hero-rocker" x="0" y="0" width="100%" height="100%">
      <feTurbulence type="fractalNoise" baseFrequency="1.1" numOctaves="2" seed="7" result="n"/>
      <feColorMatrix in="n" type="matrix" values="0 0 0 0 0.06  0 0 0 0 0.05  0 0 0 0 0.04  0 0 0 -3 1.55"/>
    </filter>
    <pattern id="meet-me-at-the-horizon--hero-burr" width="5" height="5" patternUnits="userSpaceOnUse" patternTransform="rotate(32)">
      <circle cx="1.5" cy="1.5" r="0.95" fill="#000"/>
    </pattern><clipPath id="meet-me-at-the-horizon--hero-plate"><rect x="34" y="34" width="1532" height="666"/></clipPath></defs>
    <rect x="0" y="0" width="1600" height="900" fill="#ece4d2"/>
    <rect x="24" y="24" width="1552" height="686" rx="5" fill="none" stroke="#d9cfb9" stroke-width="3"/>
    <rect x="26" y="26" width="1548" height="682" rx="4" fill="none" stroke="#fff8ea" stroke-width="1.5" opacity="0.7"/>
    <g clip-path="url(#meet-me-at-the-horizon--hero-plate)">
      
  <rect x="34" y="34" width="1532" height="666" fill="url(#meet-me-at-the-horizon--hero-wall)"/>
  <ellipse cx="920" cy="333" rx="520" ry="340" fill="url(#meet-me-at-the-horizon--hero-spill)" opacity="0.95" filter="url(#meet-me-at-the-horizon--hero-bloom)"/>
      
    <rect x="600" y="96" width="560" height="474" fill="url(#meet-me-at-the-horizon--hero-sky)"/>
    <rect x="600" y="96" width="560" height="474" fill="url(#meet-me-at-the-horizon--hero-dawn)"/>
    <circle cx="966.9" cy="298" r="1.4" fill="#cfc3ab" opacity="0.087"/><circle cx="980" cy="197.6" r="0.9" fill="#cfc3ab" opacity="0.149"/><circle cx="1158.2" cy="168.4" r="1" fill="#cfc3ab" opacity="0.196"/><circle cx="988" cy="260.5" r="1.6" fill="#cfc3ab" opacity="0.196"/><circle cx="1151.8" cy="200.1" r="2.2" fill="#cfc3ab" opacity="0.177"/><circle cx="606.5" cy="272" r="1.7" fill="#cfc3ab" opacity="0.209"/><circle cx="1138.2" cy="314.3" r="0.9" fill="#cfc3ab" opacity="0.178"/><circle cx="908.6" cy="134.3" r="2.4" fill="#cfc3ab" opacity="0.145"/><circle cx="880.7" cy="188.8" r="1.7" fill="#cfc3ab" opacity="0.109"/><circle cx="627" cy="150.9" r="2.3" fill="#cfc3ab" opacity="0.142"/><circle cx="764.7" cy="255" r="1.2" fill="#cfc3ab" opacity="0.157"/><circle cx="724.3" cy="159.5" r="1.3" fill="#cfc3ab" opacity="0.077"/><circle cx="646.1" cy="302.1" r="1.2" fill="#cfc3ab" opacity="0.114"/><circle cx="1029.8" cy="286.7" r="1.4" fill="#cfc3ab" opacity="0.105"/><circle cx="935" cy="233.8" r="1.6" fill="#cfc3ab" opacity="0.14"/><circle cx="1103.7" cy="275.7" r="1" fill="#cfc3ab" opacity="0.1"/><circle cx="631.3" cy="180" r="1.2" fill="#cfc3ab" opacity="0.144"/><circle cx="1115.2" cy="280.6" r="1.4" fill="#cfc3ab" opacity="0.189"/><circle cx="1008.6" cy="225.6" r="2" fill="#cfc3ab" opacity="0.208"/><circle cx="1045.1" cy="152.4" r="2.2" fill="#cfc3ab" opacity="0.092"/><circle cx="1054" cy="294.9" r="1.6" fill="#cfc3ab" opacity="0.194"/><circle cx="603.2" cy="287.9" r="1.6" fill="#cfc3ab" opacity="0.11"/><circle cx="954.5" cy="296.5" r="1.6" fill="#cfc3ab" opacity="0.139"/><circle cx="839.6" cy="104.7" r="1.6" fill="#cfc3ab" opacity="0.116"/><circle cx="1047.7" cy="153" r="2" fill="#cfc3ab" opacity="0.106"/><circle cx="679.4" cy="207.7" r="2.3" fill="#cfc3ab" opacity="0.149"/>
    <path d="M600 408 C 768 403 936 411 1160 406 V468 H600 Z" fill="#2f2b25"/>
    <path d="M600 408 C 768 403 936 411 1160 406" fill="none" stroke="#d7a24a" stroke-width="14" opacity="0.612" filter="url(#meet-me-at-the-horizon--hero-soft)"/>
    <path d="M600 408 C 768 403 936 411 1160 406" fill="none" stroke="#b5392a" stroke-width="3"/>
    <path d="M600 478 L608 420.8 L616 455 L624.3 423.3 L632.7 458.3 L644.7 418.7 L656.7 460.5 L667.7 411.7 L678.8 452.7 L691.3 424.1 L703.8 452.6 L714 436.7 L724.3 455.8 L731.3 432.5 L738.3 462.8 L747.3 397.4 L756.2 456 L760.7 430.1 L765.2 453.4 L772.1 436.8 L778.9 462.8 L788.7 397.5 L798.5 452.2 L808.9 413 L819.2 458.5 L824.6 428.6 L829.9 456.6 L837.2 434.3 L844.4 461.2 L850.1 437.2 L855.9 454.8 L867.5 426.4 L879 453.8 L884.4 435.9 L889.8 452.3 L898.6 421.1 L907.3 454.5 L915.9 427.2 L924.4 457.6 L929.4 389.6 L934.5 457.6 L941.6 429.4 L948.6 457.8 L960.2 427.8 L971.7 463.8 L979 414.3 L986.3 455.6 L993.2 428.4 L1000.1 453.6 L1011.5 429.3 L1023 459.6 L1030 426.8 L1037.1 454.2 L1046.8 434.7 L1056.5 462 L1063 430.7 L1069.5 461.4 L1076.3 435.6 L1083.2 462.6 L1090.5 419 L1097.8 462 L1110.1 435.9 L1122.4 457.8 L1127.8 437.2 L1133.3 456.6 L1144.7 437.6 L1156.2 452.9 L1165.5 436.5 L1174.9 452.5 L1160 570 L600 570 Z" fill="#1b1915"/>
      
    <path d="M566 66 H1194 V590 H566 Z M600 96 V570 H1160 V96 Z" fill="#24211c"/>
    <rect x="566" y="66" width="628" height="4" fill="#554d41" opacity="0.35"/>
    <rect x="873" y="96" width="14" height="474" fill="#1b1915"/>
    <rect x="600" y="308" width="560" height="12" fill="#1b1915"/>
    <rect x="873" y="96" width="3" height="474" fill="#554d41" opacity="0.55"/>
    <rect x="600" y="308" width="560" height="2.5" fill="#554d41" opacity="0.5"/>
    <rect x="546" y="584" width="668" height="22" fill="#2f2b25"/>
    <rect x="546" y="584" width="668" height="3" fill="#a09380" opacity="0.9"/>
    <rect x="796" y="583" width="280" height="4" fill="#d7a24a" opacity="0.35"/>
      
  <path d="M600 570 L1160 570 L1420 700 L480 700 Z" fill="url(#meet-me-at-the-horizon--hero-shaft)" filter="url(#meet-me-at-the-horizon--hero-bloom)"/>
      <path d="M370 34 H618 C 578 260 548 470 582 700 H340 Z" fill="#24211c"/>
    <path d="M390 34 C 400 260 372 470 384 700" fill="none" stroke="#a09380" stroke-width="7.793505541514605" opacity="0.12" filter="url(#meet-me-at-the-horizon--hero-soft)"/><path d="M427.6 34 C 433.6 260 403.6 470 419.6 700" fill="none" stroke="#a09380" stroke-width="8.733027214650065" opacity="0.15" filter="url(#meet-me-at-the-horizon--hero-soft)"/><path d="M465.2 34 C 467.2 260 435.2 470 455.2 700" fill="none" stroke="#a09380" stroke-width="10.029633660800755" opacity="0.24" filter="url(#meet-me-at-the-horizon--hero-soft)"/><path d="M502.8 34 C 500.8 260 466.8 470 490.8 700" fill="none" stroke="#a09380" stroke-width="5.9814646942541" opacity="0.39" filter="url(#meet-me-at-the-horizon--hero-soft)"/><path d="M540.4 34 C 534.4 260 498.4 470 526.4 700" fill="none" stroke="#a09380" stroke-width="9.779266418423504" opacity="0.6" filter="url(#meet-me-at-the-horizon--hero-soft)"/><path d="M578 34 C 568 260 530 470 562 700" fill="none" stroke="#a09380" stroke-width="8.986120464280248" opacity="0.87" filter="url(#meet-me-at-the-horizon--hero-soft)"/>
    <rect x="330" y="54" width="338" height="8" fill="#3d382f"/>
      
    <path d="M34 622 C 380 574 1040 566 1566 602 V700 H34 Z" fill="#24211c"/>
    <path d="M34 622 C 380 574 1040 566 1566 602" fill="none" stroke="#766b5a" stroke-width="5" opacity="0.9" filter="url(#meet-me-at-the-horizon--hero-soft)"/>
    <path d="M70 610 C 120 556 300 550 360 594 C 320 622 150 628 70 610 Z" fill="#766b5a"/>
    <path d="M110 594 C 170 566 280 562 330 586" fill="none" stroke="#cfc3ab" stroke-width="8" stroke-linecap="round" opacity="0.75" filter="url(#meet-me-at-the-horizon--hero-soft)"/>
    <path d="M560 630 C 780 592 1120 588 1420 636" fill="none" stroke="#a09380" stroke-width="12" stroke-linecap="round" opacity="0.7" filter="url(#meet-me-at-the-horizon--hero-soft)"/>
    <path d="M640 680 C 860 648 1100 652 1330 688" fill="none" stroke="#766b5a" stroke-width="10" stroke-linecap="round" opacity="0.55" filter="url(#meet-me-at-the-horizon--hero-soft)"/>
    <path d="M900 666 C 960 658 1010 680 1040 708" fill="none" stroke="#766b5a" stroke-width="7" stroke-linecap="round" opacity="0.45" filter="url(#meet-me-at-the-horizon--hero-soft)"/>
      
  <rect x="34" y="34" width="1532" height="666" fill="url(#meet-me-at-the-horizon--hero-burr)" opacity="0.1"/>
  <rect x="34" y="34" width="1532" height="666" fill="#000" opacity="0.55" filter="url(#meet-me-at-the-horizon--hero-rocker)"/>
    </g>
    <g opacity="1"><text x="800" y="788.1" font-size="66" font-weight="700" fill="#1b1915" text-anchor="middle">THEN THE SUN STARTS TO WAKE,</text><text x="800" y="859.4" font-size="66" font-weight="700" fill="#1b1915" text-anchor="middle">THE TREES START TO YAWN</text></g></svg>
